<svg width="50" height="36" viewBox="0 0 50 36" fill="none" xmlns="http://www.w3.org/2000/svg">
<path d="M11.25 35.5C5.03906 35.5 0 30.4609 0 24.25C0 19.3438 3.14062 15.1719 7.51562 13.6328C7.50781 13.4219 7.5 13.2109 7.5 13C7.5 6.09375 13.0938 0.5 20 0.5C24.6328 0.5 28.6719 3.01562 30.8359 6.76562C32.0234 5.96875 33.4609 5.5 35 5.5C39.1406 5.5 42.5 8.85938 42.5 13C42.5 13.9531 42.3203 14.8594 42 15.7031C46.5625 16.625 50 20.6641 50 25.5C50 31.0234 45.5234 35.5 40 35.5H11.25ZM17.4219 18.5469C16.6875 19.2812 16.6875 20.4688 17.4219 21.1953C18.1562 21.9219 19.3438 21.9297 20.0703 21.1953L23.1172 18.1484V28.625C23.1172 29.6641 23.9531 30.5 24.9922 30.5C26.0312 30.5 26.8672 29.6641 26.8672 28.625V18.1484L29.9141 21.1953C30.6484 21.9297 31.8359 21.9297 32.5625 21.1953C33.2891 20.4609 33.2969 19.2734 32.5625 18.5469L26.3125 12.2969C25.5781 11.5625 24.3906 11.5625 23.6641 12.2969L17.4141 18.5469H17.4219Z" fill="black"/>
</svg>
