<svg width="50" height="36" viewBox="0 0 50 36" fill="none" xmlns="http://www.w3.org/2000/svg">
<path d="M4.23438 13.8516C9.625 8.67969 16.9375 5.5 25 5.5C33.0625 5.5 40.375 8.67969 45.7656 13.8516C46.7656 14.8047 48.3438 14.7734 49.2969 13.7812C50.25 12.7891 50.2187 11.2031 49.2266 10.25C42.9453 4.21094 34.4062 0.5 25 0.5C15.5938 0.5 7.05469 4.21094 0.765626 10.2422C-0.226561 11.2031 -0.257811 12.7812 0.695314 13.7812C1.64844 14.7812 3.23438 14.8125 4.22656 13.8516H4.23438ZM25 18C29.4375 18 33.4844 19.6484 36.5781 22.375C37.6172 23.2891 39.1953 23.1875 40.1094 22.1562C41.0234 21.125 40.9219 19.5391 39.8906 18.625C35.9219 15.125 30.7031 13 25 13C19.2969 13 14.0781 15.125 10.1172 18.625C9.07813 19.5391 8.98438 21.1172 9.89844 22.1562C10.8125 23.1953 12.3906 23.2891 13.4297 22.375C16.5156 19.6484 20.5625 18 25.0078 18H25ZM30 30.5C30 29.1739 29.4732 27.9021 28.5355 26.9645C27.5979 26.0268 26.3261 25.5 25 25.5C23.6739 25.5 22.4022 26.0268 21.4645 26.9645C20.5268 27.9021 20 29.1739 20 30.5C20 31.8261 20.5268 33.0979 21.4645 34.0355C22.4022 34.9732 23.6739 35.5 25 35.5C26.3261 35.5 27.5979 34.9732 28.5355 34.0355C29.4732 33.0979 30 31.8261 30 30.5Z" fill="black"/>
</svg>
